<?xml version="1.0" encoding="utf-8"?>
<!-- Generator: Adobe Illustrator 24.3.0, SVG Export Plug-In . SVG Version: 6.00 Build 0)  -->
<svg version="1.1" id="Layer_1" xmlns="http://www.w3.org/2000/svg" xmlns:xlink="http://www.w3.org/1999/xlink" x="0px" y="0px"
	 viewBox="0 0 64 48" style="enable-background:new 0 0 64 48;" xml:space="preserve">
<style type="text/css">
	.st0{fill:none;}
	.st1{fill-rule:evenodd;clip-rule:evenodd;fill:#90A4AE;}
	.st2{fill-rule:evenodd;clip-rule:evenodd;fill:#A47BBA;}
</style>
<g>
	<rect x="8" class="st0" width="48" height="48"/>
</g>
<g>
	<path class="st1" d="M41.3,26.3C44,28.2,46,30.7,46,34v6h8v-6C54,29.6,46.9,27.1,41.3,26.3z"/>
</g>
<g>
	<circle class="st2" cx="26" cy="16" r="8"/>
</g>
<g>
	<path class="st1" d="M38,24c4.4,0,8-3.6,8-8s-3.6-8-8-8c-0.9,0-1.8,0.2-2.7,0.5c1.7,2,2.7,4.7,2.7,7.5s-1,5.5-2.7,7.5
		C36.2,23.8,37.1,24,38,24z"/>
</g>
<g>
	<path class="st2" d="M26,26c-5.3,0-16,2.7-16,8v6h32v-6C42,28.7,31.3,26,26,26z"/>
</g>
</svg>
