<?xml version="1.0" encoding="utf-8"?>
<!-- Generator: Adobe Illustrator 24.3.0, SVG Export Plug-In . SVG Version: 6.00 Build 0)  -->
<svg version="1.1" id="Layer_1" xmlns="http://www.w3.org/2000/svg" xmlns:xlink="http://www.w3.org/1999/xlink" x="0px" y="0px"
	 viewBox="0 0 64 48" style="enable-background:new 0 0 64 48;" xml:space="preserve">
<style type="text/css">
	.st0{fill:none;}
	.st1{fill-rule:evenodd;clip-rule:evenodd;fill:#90A4AE;}
	.st2{fill-rule:evenodd;clip-rule:evenodd;fill:#1E88E5;}
</style>
<g>
	<rect x="3" class="st0" width="48" height="48"/>
	<path class="st1" d="M36.4,26.3c2.7,1.9,4.7,4.4,4.7,7.7v6h8v-6C49,29.6,41.9,27.1,36.4,26.3z"/>
	<circle class="st2" cx="21" cy="16" r="8"/>
	<path class="st1" d="M33,24c4.4,0,8-3.6,8-8s-3.6-8-8-8c-0.9,0-1.8,0.2-2.7,0.5c1.7,2,2.7,4.7,2.7,7.5s-1,5.5-2.7,7.5
		C31.2,23.8,32.1,24,33,24z"/>
	<path class="st2" d="M21,26c-5.3,0-16,2.7-16,8v6h32v-6C37,28.7,26.4,26,21,26z"/>
	<path class="st1" d="M48.3,26.3C51,28.2,53,30.7,53,34v6h8v-6C61,29.6,53.8,27.1,48.3,26.3z"/>
	<path class="st1" d="M45,24c4.4,0,8-3.6,8-8s-3.6-8-8-8c-0.9,0-1.8,0.2-2.7,0.5c1.7,2,2.7,4.7,2.7,7.5s-1,5.5-2.7,7.5
		C43.2,23.8,44,24,45,24z"/>
</g>
</svg>
