<?xml version="1.0" encoding="utf-8"?>
<!-- Generator: Adobe Illustrator 24.3.0, SVG Export Plug-In . SVG Version: 6.00 Build 0)  -->
<svg version="1.1" id="Layer_1" xmlns="http://www.w3.org/2000/svg" xmlns:xlink="http://www.w3.org/1999/xlink" x="0px" y="0px"
	 viewBox="0 0 96 48" style="enable-background:new 0 0 96 48;" xml:space="preserve">
<style type="text/css">
	.st0{fill:none;}
	.st1{fill-rule:evenodd;clip-rule:evenodd;fill:#1E88E5;}
	.st2{fill-rule:evenodd;clip-rule:evenodd;fill:#90A4AE;}
</style>
<path class="st0" d="M8,0v48h48V0H8z M35.3,8.5C36.2,8.2,37.1,8,38,8c4.4,0,8,3.6,8,8s-3.6,8-8,8c-0.9,0-1.8-0.2-2.7-0.5
	c1.7-2,2.7-4.7,2.7-7.5S37,10.5,35.3,8.5z M34,16c0,4.4-3.6,8-8,8c-4.4,0-8-3.6-8-8s3.6-8,8-8C30.5,8,34,11.6,34,16z M10,40v-6
	c0-5.3,10.7-8,16-8c5.4,0,16,2.7,16,8v6H10z M46.1,40v-6c0-3.3-2-5.8-4.7-7.7c5.2,0.8,11.7,3,12.6,6.9V40H46.1z M54,22.9
	c-1.2,0.7-2.5,1.1-4,1.1c-1,0-1.8-0.2-2.7-0.5c1.7-2,2.7-4.7,2.7-7.5s-1-5.5-2.7-7.5C48.2,8.2,49.1,8,50,8c1.5,0,2.8,0.4,4,1.1V22.9
	z"/>
<path class="st1" d="M54,33.2V40h-7.9v-6c0-3.3-2-5.8-4.7-7.7C46.6,27,53.2,29.3,54,33.2z"/>
<path class="st2" d="M54.1,34v6H54v-6.8C54.1,33.5,54.1,33.7,54.1,34z"/>
<circle class="st1" cx="26" cy="16" r="8"/>
<path class="st1" d="M46,16c0,4.4-3.6,8-8,8c-0.9,0-1.8-0.2-2.7-0.5c1.7-2,2.7-4.7,2.7-7.5s-1-5.5-2.7-7.5C36.2,8.2,37.1,8,38,8
	C42.4,8,46,11.6,46,16z"/>
<path class="st1" d="M42,34v6H10v-6c0-5.3,10.7-8,16-8C31.4,26,42,28.7,42,34z"/>
<path class="st2" d="M53.3,26.3C56,28.2,58,30.7,58,34v6h8v-6C66,29.6,58.8,27.1,53.3,26.3z"/>
<path class="st1" d="M54,9.1v13.8c-1.2,0.7-2.5,1.1-4,1.1c-1,0-1.8-0.2-2.7-0.5c1.7-2,2.7-4.7,2.7-7.5s-1-5.5-2.7-7.5
	C48.2,8.2,49.1,8,50,8C51.5,8,52.9,8.4,54,9.1z"/>
<path class="st2" d="M58,16c0,2-0.8,3.9-2,5.3c-0.6,0.6-1.2,1.2-2,1.6V9.1c0.8,0.4,1.4,1,2,1.6C57.3,12.1,58,14,58,16z"/>
<path class="st2" d="M64.4,26.3c2.7,1.9,4.7,4.4,4.7,7.7v6h8v-6C77.1,29.6,69.9,27.1,64.4,26.3z"/>
<path class="st2" d="M61.1,24c4.4,0,8-3.6,8-8s-3.6-8-8-8c-0.9,0-1.8,0.2-2.7,0.5c1.7,2,2.7,4.7,2.7,7.5s-1,5.5-2.7,7.5
	C59.3,23.8,60.1,24,61.1,24z"/>
<path class="st2" d="M75.3,26.3C78,28.2,80,30.7,80,34v6h8v-6C88,29.6,80.8,27.1,75.3,26.3z"/>
<path class="st2" d="M72,24c4.4,0,8-3.6,8-8s-3.6-8-8-8c-0.9,0-1.8,0.2-2.7,0.5c1.7,2,2.7,4.7,2.7,7.5s-1,5.5-2.7,7.5
	C70.2,23.8,71,24,72,24z"/>
</svg>
