<?xml version="1.0" encoding="utf-8"?>
<!-- Generator: Adobe Illustrator 24.3.0, SVG Export Plug-In . SVG Version: 6.00 Build 0)  -->
<svg version="1.1" id="Layer_1" xmlns="http://www.w3.org/2000/svg" xmlns:xlink="http://www.w3.org/1999/xlink" x="0px" y="0px"
	 viewBox="0 0 64 48" style="enable-background:new 0 0 64 48;" xml:space="preserve">
<style type="text/css">
	.st0{fill:none;}
	.st1{fill-rule:evenodd;clip-rule:evenodd;fill:#90A4AE;}
	.st2{fill-rule:evenodd;clip-rule:evenodd;fill:#A47BBA;}
</style>
<g>
	<path class="st0" d="M3,0v48h48V0H3z M29,16c0,4.4-3.6,8-8,8s-8-3.6-8-8s3.6-8,8-8S29,11.6,29,16z M30.3,8.5C31.2,8.2,32.1,8,33,8
		c1,0,1.9,0.2,2.8,0.5v15C34.9,23.8,34,24,33,24c-0.9,0-1.8-0.2-2.7-0.5c1.7-2,2.7-4.7,2.7-7.5S32,10.5,30.3,8.5z M5,40v-6
		c0-5.3,10.7-8,16-8c4.3,0,11.9,1.7,14.8,5.1V40H5z"/>
	<path class="st1" d="M36.4,26.3c2.7,1.9,4.7,4.4,4.7,7.7v6h8v-6C49,29.6,41.9,27.1,36.4,26.3z"/>
	<circle class="st2" cx="21" cy="16" r="8"/>
	<path class="st2" d="M35.8,8.5v15C34.9,23.8,34,24,33,24c-0.9,0-1.8-0.2-2.7-0.5c1.7-2,2.7-4.7,2.7-7.5s-1-5.5-2.7-7.5
		C31.2,8.2,32.1,8,33,8C34,8,34.9,8.2,35.8,8.5z"/>
	<path class="st1" d="M41,16c0,3.4-2.2,6.3-5.2,7.5v-15C38.8,9.7,41,12.6,41,16z"/>
	<path class="st2" d="M37,34v6H5v-6c0-5.3,10.7-8,16-8c4.3,0,11.9,1.7,14.8,5.1C36.6,31.9,37,32.9,37,34z"/>
	<path class="st1" d="M48.3,26.3C51,28.2,53,30.7,53,34v6h8v-6C61,29.6,53.8,27.1,48.3,26.3z"/>
	<path class="st1" d="M45,24c4.4,0,8-3.6,8-8s-3.6-8-8-8c-0.9,0-1.8,0.2-2.7,0.5c1.7,2,2.7,4.7,2.7,7.5s-1,5.5-2.7,7.5
		C43.2,23.8,44,24,45,24z"/>
</g>
</svg>
