<?xml version="1.0" encoding="utf-8"?>
<!-- Generator: Adobe Illustrator 24.3.0, SVG Export Plug-In . SVG Version: 6.00 Build 0)  -->
<svg version="1.1" id="Layer_1" xmlns="http://www.w3.org/2000/svg" xmlns:xlink="http://www.w3.org/1999/xlink" x="0px" y="0px"
	 viewBox="0 0 1280 846" style="enable-background:new 0 0 1280 846;" xml:space="preserve">
<style type="text/css">
	.st0{fill:#BFCCFF;}
	.st1{fill:#7182C9;}
</style>
<g>
	<path class="st0" d="M1063.5,308v230c0,70.7-57.3,128-128,128h-574c-69.3,0-125.8-55.2-127.9-124c0-1.3-0.1-2.7-0.1-4V308
		c0-70.7,57.3-128,128-128h574C1006.2,180,1063.5,237.3,1063.5,308z"/>
</g>
<g>
	<path class="st1" d="M322.5,394L322.5,394c-70.7,0-128-57.3-128-128v0c0-70.7,57.3-128,128-128h0c70.7,0,128,57.3,128,128v0
		C450.5,336.7,393.2,394,322.5,394z"/>
</g>
<g>
	<path d="M291.1,431v46.6h16v7.7h-24.2V431H291.1z"/>
	<path d="M344.5,470H320c0.2,2.8,1.1,5.1,2.7,6.7c1.6,1.6,3.7,2.5,6.2,2.5c2,0,3.6-0.5,4.9-1.4c1.3-0.9,2.7-2.7,4.3-5.2l6.7,3.7
		c-1,1.8-2.1,3.3-3.3,4.5c-1.1,1.3-2.4,2.3-3.7,3.1c-1.3,0.8-2.7,1.4-4.3,1.8c-1.5,0.4-3.2,0.6-5,0.6c-5.1,0-9.2-1.6-12.3-4.9
		c-3.1-3.3-4.6-7.7-4.6-13.1c0-5.4,1.5-9.8,4.5-13.1c3-3.3,7-5,12-5c5,0,9,1.6,12,4.8c2.9,3.2,4.4,7.6,4.4,13.3L344.5,470z
		 M336.4,463.5c-1.1-4.2-3.8-6.3-8-6.3c-1,0-1.9,0.1-2.7,0.4s-1.6,0.7-2.3,1.3c-0.7,0.6-1.3,1.2-1.8,2s-0.9,1.7-1.1,2.6H336.4z"/>
	<path d="M353.2,451h7.9v3.2c2.8-2.7,5.9-4.1,9.4-4.1c4,0,7.1,1.3,9.3,3.8c1.9,2.1,2.9,5.6,2.9,10.4v21h-7.9v-19.1
		c0-3.4-0.5-5.7-1.4-7c-0.9-1.3-2.6-2-5-2c-2.6,0-4.5,0.9-5.6,2.6c-1.1,1.7-1.6,4.7-1.6,9v16.5h-7.9V451z"/>
	<path d="M400.8,458.4v26.9h-7.9v-26.9h-3.4V451h3.4v-12.6h7.9V451h6.2v7.4H400.8z"/>
	<path d="M438.2,451h7.9v34.2h-7.9v-3.6c-3.3,3-6.8,4.6-10.5,4.6c-4.7,0-8.6-1.7-11.7-5.1c-3.1-3.5-4.6-7.9-4.6-13.1
		c0-5.1,1.5-9.4,4.6-12.8c3.1-3.4,6.9-5.1,11.5-5.1c4,0,7.6,1.6,10.7,4.9V451z M419.4,468c0,3.3,0.9,6,2.6,8
		c1.8,2.1,4.1,3.1,6.8,3.1c2.9,0,5.3-1,7.1-3c1.8-2.1,2.7-4.7,2.7-7.9s-0.9-5.9-2.7-7.9c-1.8-2-4.1-3.1-7-3.1c-2.7,0-5,1-6.8,3.1
		C420.3,462.4,419.4,465,419.4,468z"/>
	<path d="M488,452.2h23.4V431h8.2v54.3h-8.2v-25.3H488v25.3h-8.2V431h8.2V452.2z"/>
	<path d="M532.4,481.3c0-1.3,0.5-2.4,1.4-3.4c1-1,2.1-1.4,3.4-1.4s2.5,0.5,3.4,1.4c1,1,1.4,2.1,1.4,3.4c0,1.4-0.5,2.5-1.4,3.5
		c-0.9,0.9-2.1,1.4-3.4,1.4c-1.4,0-2.5-0.5-3.5-1.4C532.9,483.9,532.4,482.7,532.4,481.3z"/>
</g>
<g>
	<path class="st1" d="M292.8,507.5l-2.2,2.1c-1.1-1.6-2.3-2.3-3.7-2.3c-1,0-1.8,0.3-2.5,0.9s-1,1.4-1,2.3c0,0.7,0.2,1.4,0.7,1.9
		c0.2,0.3,0.6,0.5,1,0.9s1,0.7,1.6,1.1c1.9,1.1,3.2,2.2,3.9,3.1c0.7,0.9,1,2.1,1,3.6c0,2-0.6,3.5-1.9,4.7c-1.3,1.2-2.9,1.8-5,1.8
		c-1.7,0-3.1-0.4-4.3-1.1c-0.6-0.4-1.1-0.8-1.6-1.4c-0.5-0.6-1-1.3-1.5-2.1l2.5-1.7c0.7,1.2,1.4,2.1,2,2.5s1.5,0.7,2.6,0.7
		c1.2,0,2.1-0.3,2.8-0.9s1-1.5,1-2.7c0-0.8-0.2-1.5-0.7-2c-0.2-0.3-0.6-0.6-1.1-1s-1.1-0.7-1.8-1.2c-1.7-1-2.9-2-3.6-2.9
		c-0.6-0.9-1-2-1-3.4c0-1.8,0.6-3.3,1.9-4.5c1.3-1.2,2.9-1.8,4.8-1.8c1.3,0,2.3,0.3,3.2,0.8C290.9,505.4,291.9,506.2,292.8,507.5z"
		/>
	<path class="st1" d="M300.8,502.4l-1.5,12.1c1.3-1,2.6-1.5,4-1.5c1.3,0,2.4,0.4,3.2,1.1c0.8,0.7,1.2,1.6,1.2,2.8c0,0.3,0,0.6,0,0.9
		s-0.1,0.7-0.1,1.2l-1,8.2h-3.2l1-8.4c0.1-0.4,0.1-0.9,0.1-1.2c0-1.2-0.7-1.8-2.2-1.8c-2.1,0-3.3,1.4-3.6,4.2l-0.9,7.2h-3.2l3-24.7
		H300.8z"/>
	<path class="st1" d="M314.4,521.4c0,1,0.4,1.9,1.1,2.5c0.7,0.7,1.6,1,2.7,1c1.5,0,2.7-0.6,3.5-1.7l2.4,1.3
		c-0.8,1.1-1.7,1.9-2.6,2.4c-0.9,0.5-2,0.7-3.4,0.7c-2.1,0-3.8-0.6-5.1-1.9s-1.9-2.9-1.9-5.1c0-2.2,0.7-4.1,2.1-5.5
		c1.4-1.5,3.1-2.2,5.3-2.2c2.1,0,3.7,0.7,4.8,2c1.2,1.3,1.8,3.1,1.8,5.4c0,0.2,0,0.6,0,1.1H314.4z M321.8,518.8
		c-0.3-2.1-1.5-3.2-3.5-3.2c-1.9,0-3.1,1.1-3.7,3.2H321.8z"/>
	<path class="st1" d="M341.8,503.1l-14,30.6l-2.3-1l14-30.6L341.8,503.1z"/>
	<path class="st1" d="M361.5,504.6l-2.8,22.6h-3.4l1.4-11h-9.3l-1.3,11h-3.4l2.8-22.6h3.3l-1.1,8.9h9.3l1.1-8.9H361.5z"/>
	<path class="st1" d="M367.1,521.4c0,1,0.4,1.9,1.1,2.5c0.7,0.7,1.6,1,2.7,1c1.5,0,2.7-0.6,3.5-1.7l2.4,1.3
		c-0.8,1.1-1.7,1.9-2.6,2.4c-0.9,0.5-2,0.7-3.4,0.7c-2.1,0-3.8-0.6-5.1-1.9s-1.9-2.9-1.9-5.1c0-2.2,0.7-4.1,2.1-5.5
		c1.4-1.5,3.1-2.2,5.3-2.2c2.1,0,3.7,0.7,4.8,2c1.2,1.3,1.8,3.1,1.8,5.4c0,0.2,0,0.6,0,1.1H367.1z M374.5,518.8
		c-0.3-2.1-1.5-3.2-3.5-3.2c-1.9,0-3.1,1.1-3.7,3.2H374.5z"/>
	<path class="st1" d="M385.5,513.4l-0.1,1.2c1.1-1,2.2-1.6,3.3-1.6c1,0,1.9,0.4,2.7,1.1l-2.1,2.7c-0.6-0.5-1.2-0.8-1.8-0.8
		c-0.4,0-0.8,0.1-1.1,0.2c-0.3,0.2-0.6,0.4-0.8,0.8s-0.4,0.8-0.6,1.3s-0.3,1.2-0.4,2l-0.8,6.9h-3.2l1.7-13.8H385.5z"/>
</g>
<g>
	<path d="M295.8,560.8h-9.7l-2.5,5.5h-3.7l11.2-24l10.8,24h-3.7L295.8,560.8z M294.4,557.6l-3.4-7.7l-3.5,7.7H294.4z"/>
	<path d="M315,552.6v4.4c-0.8-0.9-1.4-1.5-2-1.9c-0.6-0.4-1.3-0.5-2.1-0.5c-1.2,0-2.3,0.4-3.1,1.3s-1.2,2-1.2,3.3
		c0,1.3,0.4,2.4,1.2,3.3c0.8,0.9,1.8,1.3,3.1,1.3c0.8,0,1.5-0.2,2.1-0.5c0.6-0.3,1.3-1,2.1-1.9v4.4c-1.3,0.7-2.7,1-4,1
		c-2.2,0-4.1-0.7-5.5-2.1c-1.5-1.4-2.2-3.2-2.2-5.3s0.8-3.9,2.3-5.4s3.3-2.2,5.5-2.2C312.5,551.6,313.8,551.9,315,552.6z"/>
	<path d="M321.6,555.1v11.2h-3.3v-11.2h-1.4V552h1.4v-5.2h3.3v5.2h2.6v3.1H321.6z"/>
	<path d="M325.9,546.1c0-0.6,0.2-1.1,0.6-1.5s0.9-0.6,1.5-0.6c0.6,0,1.1,0.2,1.5,0.6c0.4,0.4,0.6,0.9,0.6,1.5s-0.2,1.1-0.6,1.5
		c-0.4,0.4-0.9,0.6-1.5,0.6s-1.1-0.2-1.5-0.6S325.9,546.7,325.9,546.1z M329.7,552v14.3h-3.3V552H329.7z"/>
	<path d="M335.7,552l3.7,8l3.7-8h3.7l-7.4,15.2L332,552H335.7z"/>
	<path d="M348.5,546.1c0-0.6,0.2-1.1,0.6-1.5s0.9-0.6,1.5-0.6c0.6,0,1.1,0.2,1.5,0.6c0.4,0.4,0.6,0.9,0.6,1.5s-0.2,1.1-0.6,1.5
		c-0.4,0.4-0.9,0.6-1.5,0.6s-1.1-0.2-1.5-0.6S348.5,546.7,348.5,546.1z M352.3,552v14.3H349V552H352.3z"/>
	<path d="M364.7,554.4l-2.7,1.5c-0.4-0.9-1-1.3-1.6-1.3c-0.3,0-0.6,0.1-0.8,0.3c-0.2,0.2-0.3,0.5-0.3,0.8c0,0.5,0.6,1.1,1.9,1.6
		c1.7,0.8,2.9,1.4,3.5,2.1s0.9,1.5,0.9,2.6c0,1.4-0.5,2.5-1.5,3.5c-1,0.9-2.2,1.3-3.6,1.3c-2.4,0-4.1-1.2-5.1-3.5l2.8-1.3
		c0.4,0.7,0.7,1.1,0.9,1.3c0.4,0.4,0.9,0.6,1.4,0.6c1.1,0,1.7-0.5,1.7-1.5c0-0.6-0.4-1.1-1.3-1.6c-0.3-0.2-0.7-0.3-1-0.5
		s-0.7-0.3-1-0.5c-1-0.5-1.6-0.9-2-1.4c-0.5-0.6-0.7-1.4-0.7-2.3c0-1.2,0.4-2.3,1.3-3.1c0.9-0.8,1.9-1.2,3.2-1.2
		C362.5,551.6,363.8,552.6,364.7,554.4z"/>
	<path d="M372,555.1v11.2h-3.3v-11.2h-1.4V552h1.4v-5.2h3.3v5.2h2.6v3.1H372z"/>
</g>
<g>
	<path d="M495.5,263.5v-5.2c2.6,0,4.4-0.3,5.2-0.9c1.6-1,2.4-2.7,2.4-4.9c0-1.7-0.6-3.2-1.7-4.2c-1.1-1.1-2.6-1.7-4.5-1.7
		c-1.7,0-3,0.4-4,1.2c-0.9,0.8-1.6,2.3-2,4.3h-6.1c0.6-3.8,1.9-6.6,3.9-8.4c2-1.8,4.7-2.7,8.3-2.7c3.6,0,6.5,1.1,8.7,3.2
		c2.2,2.1,3.4,4.8,3.4,8.1c0,3.7-1.5,6.6-4.4,8.7c3.4,2,5.1,5.2,5.1,9.7c0,3.7-1.2,6.6-3.7,9c-2.5,2.3-5.6,3.5-9.5,3.5
		c-4.9,0-8.5-1.8-10.9-5.4c-1-1.5-1.6-3.6-1.9-6.3h5.9c0.3,2,1.1,3.5,2.3,4.5c1.2,1,2.8,1.6,4.8,1.6c2,0,3.6-0.7,4.9-2
		c1.3-1.4,2-3.1,2-5.1c0-2.7-1-4.7-2.9-5.9C499.6,263.8,497.9,263.5,495.5,263.5z"/>
	<path d="M528.4,276.6h15.2v5.8h-27.3l14.1-17.1c1.4-1.7,2.6-3.2,3.5-4.4c0.9-1.2,1.7-2.3,2.1-3.1c1-1.7,1.5-3.1,1.5-4.5
		c0-1.9-0.7-3.5-2-4.8c-1.3-1.3-3-1.9-5-1.9c-4.1,0-6.5,2.4-7.1,7.3h-6.1c1-8.6,5.3-12.9,13-12.9c3.7,0,6.8,1.2,9.3,3.5
		c2.5,2.4,3.8,5.3,3.8,8.8c0,2.2-0.6,4.4-1.8,6.5c-0.6,1.1-1.5,2.4-2.6,3.9c-1.2,1.5-2.6,3.3-4.4,5.4L528.4,276.6z"/>
	<path d="M488,311v9.8h-3.6v-24.1h4.1c2,0,3.5,0.1,4.6,0.4c1,0.3,2,0.8,2.8,1.6c1.4,1.4,2.1,3.1,2.1,5.1c0,2.2-0.7,4-2.2,5.2
		c-1.5,1.3-3.5,1.9-6,1.9H488z M488,307.6h1.4c3.3,0,5-1.3,5-3.9c0-2.5-1.7-3.7-5.2-3.7H488V307.6z"/>
	<path d="M499.4,313c0-2.2,0.8-4.1,2.4-5.6c1.6-1.5,3.5-2.3,5.8-2.3c2.3,0,4.2,0.8,5.8,2.3c1.6,1.6,2.3,3.5,2.3,5.7
		c0,2.3-0.8,4.2-2.4,5.7c-1.6,1.5-3.5,2.3-5.8,2.3c-2.3,0-4.2-0.8-5.7-2.3C500.1,317.3,499.4,315.4,499.4,313z M503,313.1
		c0,1.5,0.4,2.7,1.2,3.6c0.8,0.9,1.9,1.3,3.3,1.3c1.4,0,2.5-0.4,3.3-1.3c0.8-0.9,1.2-2.1,1.2-3.5c0-1.5-0.4-2.7-1.2-3.5
		c-0.8-0.9-1.9-1.3-3.3-1.3c-1.3,0-2.4,0.4-3.3,1.3C503.4,310.5,503,311.7,503,313.1z"/>
	<path d="M528.2,308.1l-2.9,1.5c-0.5-0.9-1-1.4-1.7-1.4c-0.3,0-0.6,0.1-0.8,0.3c-0.2,0.2-0.3,0.5-0.3,0.8c0,0.6,0.7,1.2,2,1.7
		c1.9,0.8,3.1,1.5,3.8,2.2c0.6,0.7,1,1.6,1,2.7c0,1.5-0.5,2.7-1.6,3.7c-1.1,0.9-2.3,1.4-3.8,1.4c-2.6,0-4.4-1.2-5.4-3.7l3-1.4
		c0.4,0.7,0.7,1.2,1,1.4c0.4,0.4,0.9,0.6,1.5,0.6c1.2,0,1.8-0.5,1.8-1.6c0-0.6-0.5-1.2-1.4-1.8c-0.4-0.2-0.7-0.3-1.1-0.5
		c-0.4-0.2-0.7-0.3-1.1-0.5c-1-0.5-1.7-1-2.2-1.5c-0.5-0.6-0.8-1.5-0.8-2.5c0-1.3,0.5-2.4,1.4-3.3c0.9-0.9,2.1-1.3,3.4-1.3
		C525.8,305.1,527.2,306.1,528.2,308.1z"/>
	<path d="M535.9,308.8v11.9h-3.5v-11.9h-1.5v-3.3h1.5V300h3.5v5.6h2.7v3.3H535.9z"/>
	<path d="M549.9,308.1l-2.9,1.5c-0.5-0.9-1-1.4-1.7-1.4c-0.3,0-0.6,0.1-0.8,0.3c-0.2,0.2-0.3,0.5-0.3,0.8c0,0.6,0.7,1.2,2,1.7
		c1.9,0.8,3.1,1.5,3.8,2.2c0.6,0.7,1,1.6,1,2.7c0,1.5-0.5,2.7-1.6,3.7c-1.1,0.9-2.3,1.4-3.8,1.4c-2.6,0-4.4-1.2-5.4-3.7l3-1.4
		c0.4,0.7,0.7,1.2,1,1.4c0.4,0.4,0.9,0.6,1.5,0.6c1.2,0,1.8-0.5,1.8-1.6c0-0.6-0.5-1.2-1.4-1.8c-0.4-0.2-0.7-0.3-1.1-0.5
		c-0.4-0.2-0.7-0.3-1.1-0.5c-1-0.5-1.7-1-2.2-1.5c-0.5-0.6-0.8-1.5-0.8-2.5c0-1.3,0.5-2.4,1.4-3.3c0.9-0.9,2.1-1.3,3.4-1.3
		C547.5,305.1,548.9,306.1,549.9,308.1z"/>
</g>
<g>
	<path d="M682.3,265.8v-5.2c2.6,0,4.4-0.3,5.2-0.9c1.6-1,2.4-2.7,2.4-4.9c0-1.7-0.6-3.2-1.7-4.2c-1.1-1.1-2.6-1.7-4.5-1.7
		c-1.7,0-3,0.4-4,1.2c-0.9,0.8-1.6,2.3-2,4.3h-6.1c0.6-3.8,1.9-6.6,3.9-8.4c2-1.8,4.7-2.7,8.3-2.7c3.6,0,6.5,1.1,8.7,3.2
		c2.2,2.1,3.4,4.8,3.4,8.1c0,3.7-1.5,6.6-4.4,8.7c3.4,2,5.1,5.2,5.1,9.7c0,3.7-1.2,6.6-3.7,9c-2.5,2.3-5.6,3.5-9.5,3.5
		c-4.9,0-8.5-1.8-10.9-5.4c-1-1.5-1.6-3.6-1.9-6.3h5.9c0.3,2,1.1,3.5,2.3,4.5c1.2,1,2.8,1.6,4.8,1.6c2,0,3.6-0.7,4.9-2
		c1.3-1.4,2-3.1,2-5.1c0-2.7-1-4.7-2.9-5.9C686.5,266.1,684.7,265.8,682.3,265.8z"/>
	<path d="M705.1,284.7l8.6-43.8l14,31.6l14.5-31.6l7.7,43.8h-6.3l-3.9-24.6l-12,26.4l-11.7-26.5l-4.4,24.6H705.1z"/>
	<path d="M657.5,302.4h-8.4v5.8h8.1v3.4h-8.1v11.5h-3.6V299h12V302.4z"/>
	<path d="M660.1,315.4c0-2.2,0.8-4.1,2.4-5.6c1.6-1.5,3.5-2.3,5.8-2.3c2.3,0,4.2,0.8,5.8,2.3c1.6,1.6,2.3,3.5,2.3,5.7
		c0,2.3-0.8,4.2-2.4,5.7c-1.6,1.5-3.5,2.3-5.8,2.3c-2.3,0-4.2-0.8-5.7-2.3C660.8,319.6,660.1,317.7,660.1,315.4z M663.7,315.4
		c0,1.5,0.4,2.7,1.2,3.6c0.8,0.9,1.9,1.3,3.3,1.3c1.4,0,2.5-0.4,3.3-1.3c0.8-0.9,1.2-2.1,1.2-3.5c0-1.5-0.4-2.7-1.2-3.5
		c-0.8-0.9-1.9-1.3-3.3-1.3c-1.3,0-2.4,0.4-3.3,1.3C664.1,312.9,663.7,314,663.7,315.4z"/>
	<path d="M683.5,296.7v26.4H680v-26.4H683.5z"/>
	<path d="M691.5,296.7v26.4H688v-26.4H691.5z"/>
	<path d="M695.2,315.4c0-2.2,0.8-4.1,2.4-5.6c1.6-1.5,3.5-2.3,5.8-2.3c2.3,0,4.2,0.8,5.8,2.3c1.6,1.6,2.3,3.5,2.3,5.7
		c0,2.3-0.8,4.2-2.4,5.7c-1.6,1.5-3.5,2.3-5.8,2.3c-2.3,0-4.2-0.8-5.7-2.3C696,319.6,695.2,317.7,695.2,315.4z M698.8,315.4
		c0,1.5,0.4,2.7,1.2,3.6c0.8,0.9,1.9,1.3,3.3,1.3c1.4,0,2.5-0.4,3.3-1.3c0.8-0.9,1.2-2.1,1.2-3.5c0-1.5-0.4-2.7-1.2-3.5
		c-0.8-0.9-1.9-1.3-3.3-1.3c-1.3,0-2.4,0.4-3.3,1.3C699.2,312.9,698.8,314,698.8,315.4z"/>
	<path d="M716.5,307.9l4,8.7l4.3-10.1l4.3,10.1l3.9-8.7h3.9l-8,16.4l-4.2-9.8l-4.3,9.8l-8-16.4H716.5z"/>
	<path d="M752.7,316.3h-10.9c0.1,1.2,0.5,2.2,1.2,3c0.7,0.7,1.6,1.1,2.8,1.1c0.9,0,1.6-0.2,2.2-0.6c0.6-0.4,1.2-1.2,1.9-2.3l3,1.7
		c-0.5,0.8-0.9,1.5-1.5,2c-0.5,0.6-1.1,1-1.6,1.4c-0.6,0.4-1.2,0.6-1.9,0.8c-0.7,0.2-1.4,0.2-2.2,0.2c-2.3,0-4.1-0.7-5.5-2.2
		c-1.4-1.5-2.1-3.4-2.1-5.8c0-2.4,0.7-4.4,2-5.8c1.3-1.5,3.1-2.2,5.3-2.2c2.2,0,4,0.7,5.3,2.1c1.3,1.4,1.9,3.4,1.9,5.9L752.7,316.3z
		 M749.1,313.4c-0.5-1.9-1.7-2.8-3.5-2.8c-0.4,0-0.8,0.1-1.2,0.2c-0.4,0.1-0.7,0.3-1,0.6c-0.3,0.2-0.6,0.5-0.8,0.9s-0.4,0.7-0.5,1.2
		H749.1z"/>
	<path d="M756.6,307.9h3.5v1.4c0.6-0.7,1.2-1.1,1.7-1.4c0.5-0.3,1.1-0.4,1.8-0.4c0.9,0,1.9,0.3,2.9,0.9l-1.6,3.2
		c-0.7-0.5-1.3-0.7-2-0.7c-1.9,0-2.9,1.4-2.9,4.3v7.9h-3.5V307.9z"/>
	<path d="M777.4,310.5l-2.9,1.5c-0.5-0.9-1-1.4-1.7-1.4c-0.3,0-0.6,0.1-0.8,0.3c-0.2,0.2-0.3,0.5-0.3,0.8c0,0.6,0.7,1.2,2,1.7
		c1.9,0.8,3.1,1.5,3.8,2.2c0.6,0.7,1,1.6,1,2.7c0,1.5-0.5,2.7-1.6,3.7c-1.1,0.9-2.3,1.4-3.8,1.4c-2.6,0-4.4-1.2-5.4-3.7l3-1.4
		c0.4,0.7,0.7,1.2,1,1.4c0.4,0.4,0.9,0.6,1.5,0.6c1.2,0,1.8-0.5,1.8-1.6c0-0.6-0.5-1.2-1.4-1.8c-0.4-0.2-0.7-0.3-1.1-0.5
		c-0.4-0.2-0.7-0.3-1.1-0.5c-1-0.5-1.7-1-2.2-1.5c-0.5-0.6-0.8-1.5-0.8-2.5c0-1.3,0.5-2.4,1.4-3.3c0.9-0.9,2.1-1.3,3.4-1.3
		C775,307.4,776.4,308.5,777.4,310.5z"/>
</g>
<g>
	<path d="M927.7,275.3h4.3v5.6h-4.3v5.8h-6.1v-5.8h-20l26.1-38V275.3z M921.6,275.3v-13.6l-9.4,13.6H921.6z"/>
	<path d="M947.9,280.9h15.2v5.8h-27.3l14.1-17.1c1.4-1.7,2.6-3.2,3.5-4.4c0.9-1.2,1.7-2.3,2.1-3.1c1-1.7,1.5-3.1,1.5-4.5
		c0-1.9-0.7-3.5-2-4.8c-1.3-1.3-3-1.9-5-1.9c-4.1,0-6.5,2.4-7.1,7.3h-6.1c1-8.6,5.3-12.9,13-12.9c3.7,0,6.8,1.2,9.3,3.5
		c2.5,2.4,3.8,5.3,3.8,8.8c0,2.2-0.6,4.4-1.8,6.5c-0.6,1.1-1.5,2.4-2.6,3.9c-1.2,1.5-2.6,3.3-4.4,5.4L947.9,280.9z"/>
	<path d="M879.7,304.4h-8.4v5.8h8.1v3.4h-8.1v11.5h-3.6V301h12V304.4z"/>
	<path d="M882.3,317.4c0-2.2,0.8-4.1,2.4-5.6c1.6-1.5,3.5-2.3,5.8-2.3c2.3,0,4.2,0.8,5.8,2.3c1.6,1.6,2.3,3.5,2.3,5.7
		c0,2.3-0.8,4.2-2.4,5.7c-1.6,1.5-3.5,2.3-5.8,2.3c-2.3,0-4.2-0.8-5.7-2.3C883,321.6,882.3,319.7,882.3,317.4z M885.9,317.4
		c0,1.5,0.4,2.7,1.2,3.6c0.8,0.9,1.9,1.3,3.3,1.3c1.4,0,2.5-0.4,3.3-1.3c0.8-0.9,1.2-2.1,1.2-3.5c0-1.5-0.4-2.7-1.2-3.5
		c-0.8-0.9-1.9-1.3-3.3-1.3c-1.3,0-2.4,0.4-3.3,1.3C886.3,314.9,885.9,316,885.9,317.4z"/>
	<path d="M905.7,298.7v26.4h-3.5v-26.4H905.7z"/>
	<path d="M913.7,298.7v26.4h-3.5v-26.4H913.7z"/>
	<path d="M917.4,317.4c0-2.2,0.8-4.1,2.4-5.6c1.6-1.5,3.5-2.3,5.8-2.3c2.3,0,4.2,0.8,5.8,2.3c1.6,1.6,2.3,3.5,2.3,5.7
		c0,2.3-0.8,4.2-2.4,5.7c-1.6,1.5-3.5,2.3-5.8,2.3c-2.3,0-4.2-0.8-5.7-2.3C918.2,321.6,917.4,319.7,917.4,317.4z M921,317.4
		c0,1.5,0.4,2.7,1.2,3.6c0.8,0.9,1.9,1.3,3.3,1.3c1.4,0,2.5-0.4,3.3-1.3c0.8-0.9,1.2-2.1,1.2-3.5c0-1.5-0.4-2.7-1.2-3.5
		c-0.8-0.9-1.9-1.3-3.3-1.3c-1.3,0-2.4,0.4-3.3,1.3C921.5,314.9,921,316,921,317.4z"/>
	<path d="M938.7,309.9l4,8.7l4.3-10.1l4.3,10.1l3.9-8.7h3.9l-8,16.4l-4.2-9.8l-4.3,9.8l-8-16.4H938.7z"/>
	<path d="M961,303.5c0-0.6,0.2-1.1,0.7-1.6c0.4-0.4,1-0.7,1.6-0.7c0.6,0,1.2,0.2,1.6,0.7c0.4,0.4,0.7,1,0.7,1.6
		c0,0.6-0.2,1.2-0.7,1.6c-0.4,0.4-1,0.7-1.6,0.7s-1.2-0.2-1.6-0.7C961.2,304.7,961,304.2,961,303.5z M965.1,309.9v15.2h-3.5v-15.2
		H965.1z"/>
	<path d="M969.5,309.9h3.5v1.4c1.2-1.2,2.6-1.8,4.2-1.8c1.8,0,3.2,0.6,4.1,1.7c0.9,0.9,1.3,2.5,1.3,4.6v9.3h-3.5v-8.5
		c0-1.5-0.2-2.5-0.6-3.1c-0.4-0.6-1.1-0.9-2.2-0.9c-1.2,0-2,0.4-2.5,1.2c-0.5,0.8-0.7,2.1-0.7,4v7.3h-3.5V309.9z"/>
	<path d="M1001.8,324.7c0,0.7,0,1.4-0.1,1.9s-0.1,1-0.2,1.4c-0.2,1.1-0.7,2.1-1.5,3c-1.4,1.6-3.3,2.4-5.7,2.4c-2,0-3.7-0.5-5-1.6
		c-1.4-1.1-2.1-2.7-2.3-4.7h3.5c0.1,0.8,0.4,1.3,0.7,1.7c0.7,0.9,1.8,1.4,3.2,1.4c2.6,0,3.9-1.6,3.9-4.7v-2.1
		c-1.4,1.4-3,2.1-4.8,2.1c-2.1,0-3.8-0.8-5.1-2.2c-1.3-1.5-2-3.4-2-5.7c0-2.2,0.6-4.1,1.9-5.7c1.3-1.6,3.1-2.5,5.3-2.5
		c1.9,0,3.5,0.7,4.8,2.1v-1.7h3.5V324.7z M998.4,317.5c0-1.5-0.4-2.7-1.2-3.5c-0.8-0.9-1.8-1.4-3.1-1.4c-1.3,0-2.4,0.5-3.2,1.5
		c-0.7,0.9-1,2-1,3.4c0,1.4,0.3,2.5,1,3.4c0.8,1,1.8,1.5,3.2,1.5s2.4-0.5,3.2-1.5C998.1,320,998.4,318.9,998.4,317.5z"/>
</g>
<g>
	<g>
		<polygon points="628.5,443.4 587.8,481.3 587.5,481 579.6,472.5 567.7,459.8 576.5,451.6 588.3,464.3 620.2,434.5 		"/>
	</g>
</g>
</svg>
