<?xml version="1.0" encoding="utf-8"?>
<!-- Generator: Adobe Illustrator 24.3.0, SVG Export Plug-In . SVG Version: 6.00 Build 0)  -->
<svg version="1.1" id="Layer_1" xmlns="http://www.w3.org/2000/svg" xmlns:xlink="http://www.w3.org/1999/xlink" x="0px" y="0px"
	 viewBox="0 0 1280 846" style="enable-background:new 0 0 1280 846;" xml:space="preserve">
<style type="text/css">
	.st0{fill:#A47BBA;}
</style>
<g>
	<path class="st0" d="M640,439.4c68.3,0,128.7,16.3,177.7,37.7c45.3,20.1,73.8,65.4,73.8,114.4v67.9H388.6V592
		c0-49.4,28.5-94.7,73.8-114.4C511.3,455.8,571.7,439.4,640,439.4z M304.8,449.9c46.1,0,83.8-37.7,83.8-83.8s-37.7-83.8-83.8-83.8
		s-83.8,37.7-83.8,83.8S258.7,449.9,304.8,449.9z M352.1,496c-15.5-2.5-31-4.2-47.4-4.2c-41.5,0-80.9,8.8-116.5,24.3
		c-31,13.4-51.1,43.6-51.1,77.5v65.8h188.6V592C325.7,557.2,335.3,524.5,352.1,496z M975.2,449.9c46.1,0,83.8-37.7,83.8-83.8
		s-37.7-83.8-83.8-83.8c-46.1,0-83.8,37.7-83.8,83.8S929.1,449.9,975.2,449.9z M1142.9,593.7c0-33.9-20.1-64.1-51.1-77.5
		c-35.6-15.5-75-24.3-116.5-24.3c-16.3,0-31.8,1.7-47.4,4.2c16.8,28.5,26.4,61.2,26.4,96v67.5h188.6V593.7z M640,156.6
		c69.6,0,125.7,56.2,125.7,125.7S709.6,408,640,408s-125.7-56.2-125.7-125.7S570.4,156.6,640,156.6z"/>
</g>
</svg>
