<?xml version="1.0" encoding="utf-8"?>
<!-- Generator: Adobe Illustrator 24.3.0, SVG Export Plug-In . SVG Version: 6.00 Build 0)  -->
<svg version="1.1" id="Layer_1" xmlns="http://www.w3.org/2000/svg" xmlns:xlink="http://www.w3.org/1999/xlink" x="0px" y="0px"
	 viewBox="0 0 64 48" style="enable-background:new 0 0 64 48;" xml:space="preserve">
<style type="text/css">
	.st0{fill:#8A5FCD;}
	.st1{fill:#7D32BF;}
	.st2{fill:#9B7BD3;}
	.st3{fill:#B5A2E0;}
	.st4{fill:#CDC1EB;}
	.st5{fill:#A71EC0;}
	.st6{fill:#A61DBF;}
	.st7{fill:#A924C1;}
	.st8{fill:#AA27C2;}
	.st9{fill:#8E8B88;}
	.st10{fill:#AC2BC3;}
	.st11{fill:#FAF6FC;}
	.st12{fill:#FCFCFC;}
</style>
<g>
	<path class="st0" d="M7.5,19.6c-0.4,0.4,0.1,1.1-0.4,1.1c-0.6,0-0.5-0.7-0.7-1.1c-0.3-1.2,0-2.4-0.1-3.6c0-0.6,0.8-0.9,1.4-0.5
		c1.5,1.2,2.1,2.9,2.3,4.7c0,0.3-0.8,0.9-1.1,0.8c-0.4-0.1-0.2,0.3-0.3,0.4c-0.1,0.1-0.1,0.3-0.3,0.3c-0.2,0-0.2-0.2-0.3-0.3
		C7.8,20.8,8,20.1,7.5,19.6z"/>
	<path class="st1" d="M13.3,26.5c0-0.6-1-0.6-0.6-1.1c0.3-0.4,0.9,0.2,1.3,0.4c1.1,0.6,1.6,1.8,2.5,2.6c0.5,0.4,0,1.3-0.8,1.3
		c-1.8,0-3.4-0.7-4.8-1.8c-0.3-0.2-0.1-1.1,0.2-1.4c0.1-0.1,0.1-0.2,0.1-0.3c-0.1-0.2-0.5-0.4-0.1-0.6c0.3-0.2,0.5,0.1,0.7,0.3
		C12.4,26,12.7,26.5,13.3,26.5z"/>
	<path class="st2" d="M12.8,21.1C12.7,21,12.7,21,12.6,21c-0.3-0.1-0.7,0.5-0.9,0c-0.2-0.5,0.4-0.6,0.7-0.8c1.1-0.8,2.5-0.7,3.7-1.2
		c0.3-0.1,0.6,0.1,0.7,0.3c0.2,0.4,0.3,0.7,0,1.1c-0.9,1.5-2.1,2.6-3.7,3.1c-0.4,0.1-1-0.1-1.2-0.7c0-0.2,0-0.3-0.2-0.3
		c-0.2,0-0.5,0.1-0.6-0.2c-0.1-0.3,0.3-0.4,0.5-0.5C12.1,21.6,12.6,21.6,12.8,21.1z"/>
	<path class="st3" d="M4.6,24.5c0.2,0.1,0.2,0.2,0.3,0.2c0.2,0.2,0.8-0.1,0.8,0.4c0,0.5-0.6,0.3-0.9,0.3c-1.4,0.2-2.6-0.5-3.9-0.8
		c-0.7-0.2-0.7-1,0-1.5c0.8-0.6,1.8-0.8,2.7-1c0.6-0.1,1.2,0,1.9,0c0.4,0,0.5,0,0.4,0.6c0,0.2,0.1,0.2,0.2,0.2
		C6.4,23,6.7,23,6.6,23.3c0,0.3-0.4,0.1-0.5,0.3c0.1,0,0.1,0.1,0.2,0.1c0.2,0.1,0.7,0.1,0.6,0.5c-0.1,0.4-0.5,0.2-0.8,0.2
		C5.7,24.3,5.2,24.2,4.6,24.5z"/>
	<path class="st4" d="M7.8,28.9c0.6-0.1,0.6-1,1.1-0.6c0.4,0.3-0.1,0.8-0.2,1.2c-0.5,1.1-1.5,1.9-2.2,2.8c-0.4,0.5-1.2,0.2-1.4-0.4
		c-0.4-1,0.3-4.5,1.2-5c0.2-0.1,0.9-0.6,1.4-0.1c0.1,0.1,0.2,0.1,0.3,0.1c0.6,0,0.7,0,0.4,0.6C8.1,27.9,7.8,28.3,7.8,28.9z"/>
	<path class="st5" d="M60.3,25.8c-0.2,0.5-0.1,0.9-0.1,1.4c0,0.3,0,0.5-0.4,0.6c-0.4,0-0.4-0.2-0.4-0.5c0-1.7,0-3.4,0-5.1
		c0-0.2,0-0.6,0.3-0.5c0.7,0.3,1.3-0.2,2-0.1c0.9,0.1,1.5,0.5,1.8,1.3c0.3,1,0.3,1.9-0.4,2.7c-0.6,0.6-1.4,0.7-2.2,0.4
		C60.6,25.9,60.5,25.8,60.3,25.8z M62.8,23.8c0-1-0.5-1.6-1.3-1.6c-0.8,0-1.4,0.7-1.4,1.7c0,1,0.6,1.6,1.4,1.6
		C62.3,25.5,62.8,24.8,62.8,23.8z"/>
	<path class="st6" d="M35.5,26.1c-1.2,0-2-0.9-2.1-2.2c-0.1-1.2,0.7-2.2,1.9-2.4c1-0.1,2,0.6,2.2,1.7c0.1,0.6,0.1,1-0.7,0.9
		c-0.6-0.1-1.2,0-1.8,0c-0.2,0-0.6-0.1-0.7,0.2c-0.1,0.3,0.1,0.6,0.3,0.9c0.5,0.5,1.4,0.4,1.8-0.1c0.2-0.3,0.4-0.6,0.8-0.4
		c0.3,0.3,0,0.6-0.3,0.9C36.6,26,36.1,26.2,35.5,26.1z M35.6,23.5c0.3-0.3,1,0.3,1.1-0.4c0-0.5-0.5-0.9-1.1-0.9
		c-0.6,0-1.2,0.3-1.1,0.8C34.4,23.8,35.2,23.2,35.6,23.5z"/>
	<path class="st7" d="M21.3,21.9c0.4-0.1,0.7-0.3,1-0.4c1-0.2,1.8,0.2,1.9,1.3c0.1,0.9,0,1.8,0,2.7c0,0.3-0.1,0.5-0.4,0.5
		c-0.4,0-0.3-0.3-0.4-0.6c0-0.7,0-1.4,0-2c0-0.6,0-1.2-0.9-1.2c-0.8,0-1.2,0.4-1.2,1.2c0,0.7,0,1.4,0,2c0,0.3,0,0.6-0.4,0.6
		c-0.4,0-0.3-0.3-0.3-0.6c0-1.7,0-3.3,0-5c0-0.2-0.1-0.6,0.3-0.6c0.5,0,0.4,0.3,0.4,0.6C21.3,21,21.3,21.4,21.3,21.9z"/>
	<path class="st6" d="M27.5,26.1c-1.3,0-2-0.8-2.1-2.2c-0.1-1.3,0.7-2.3,1.9-2.4c1-0.1,1.9,0.7,2.1,1.8c0.1,0.6,0,0.9-0.7,0.8
		c-0.7,0-1.3,0-2,0c-0.6,0-0.6,0.4-0.4,0.8c0.4,0.7,1.5,0.9,2.1,0.2c0.2-0.3,0.5-0.7,0.8-0.3c0.2,0.2-0.1,0.6-0.3,0.8
		C28.6,26,28.1,26.2,27.5,26.1z M27.4,23.5c0.3-0.3,1.1,0.3,1.1-0.4c0.1-0.5-0.5-0.9-1.1-0.9c-0.6,0-1.2,0.3-1.2,0.9
		C26.4,23.7,27,23.2,27.4,23.5z"/>
	<path class="st6" d="M54.1,26.1c-1.3,0-2.1-0.8-2.1-2.2c-0.1-1.3,0.8-2.4,2-2.5c1.1-0.1,2.1,0.9,2.1,2.1c0,0.4-0.2,0.5-0.6,0.5
		c-0.8,0-1.5,0-2.3,0c-0.5,0-0.6,0.2-0.4,0.6c0.3,0.9,1.6,1.1,2.2,0.4c0.2-0.3,0.4-0.6,0.7-0.4c0.3,0.3,0,0.6-0.2,0.8
		C55.2,26,54.7,26.1,54.1,26.1z M53.8,23.5c0.4-0.3,1.2,0.4,1.3-0.4c0.1-0.5-0.5-0.9-1.1-0.9c-0.6,0-1.2,0.3-1.2,0.9
		C52.9,23.8,53.5,23.2,53.8,23.5z"/>
	<path class="st8" d="M47.8,21.9c0.4-0.2,0.8-0.3,1.2-0.4c1-0.2,1.7,0.4,1.8,1.3c0,0.9,0,1.8,0,2.6c0,0.3,0.1,0.6-0.4,0.6
		c-0.5,0-0.4-0.3-0.4-0.6c0-0.7,0-1.4,0-2.1c0-0.5-0.1-1-0.7-1.1c-0.7-0.1-1.2,0.2-1.3,0.9c-0.2,0.8-0.1,1.6-0.1,2.3
		c0,0.3,0.1,0.6-0.4,0.7c-0.5,0-0.4-0.3-0.4-0.6c0-1.6,0-3.2,0-4.9c0-0.3-0.1-0.6,0.4-0.6c0.5,0,0.4,0.4,0.4,0.6
		C47.8,21,47.8,21.4,47.8,21.9z"/>
	<path class="st9" d="M45.9,23.9c0,1.4-0.9,2.2-2.2,2.2c-1.3,0-2.2-0.9-2.2-2.3c0-1.4,0.9-2.3,2.2-2.3C45,21.5,45.9,22.5,45.9,23.9z
		 M45.1,23.8c0-1-0.5-1.6-1.3-1.6c-0.9,0-1.4,0.6-1.3,1.7c0,1,0.5,1.6,1.4,1.6C44.6,25.4,45.1,24.8,45.1,23.8z"/>
	<path class="st9" d="M40.1,26.1c-0.7,0-1-0.3-1-1c0-0.6,0-1.2,0-1.9c0-0.4,0.1-0.8-0.5-0.9c-0.3,0-0.3-0.5-0.1-0.6
		c0.7-0.1,0.6-0.5,0.6-1c0-0.3,0.1-0.4,0.4-0.4c0.3,0,0.4,0.2,0.4,0.4c0,0.4-0.1,0.9,0.6,0.9c0.3,0,0.3,0.5,0,0.6
		c-0.9,0.1-0.6,0.8-0.6,1.3c0,0.4,0,0.8,0,1.3c0,0.3,0,0.6,0.4,0.6c0.3,0,0.5,0.1,0.4,0.5C40.6,26.2,40.3,26.1,40.1,26.1z"/>
	<path class="st10" d="M57.1,23c0-0.8,0-1.7,0-2.5c0-0.3,0-0.5,0.4-0.5c0.4,0,0.4,0.3,0.4,0.5c0,1.7,0,3.4,0,5.1
		c0,0.2,0,0.5-0.3,0.5c-0.4,0-0.4-0.2-0.4-0.5C57.1,24.7,57.1,23.8,57.1,23z"/>
	<path class="st7" d="M30.6,23.8c0-0.6,0-1.2,0-1.7c0-0.5,0.5-0.6,0.6-0.3c0.3,0.6,0.4,0.3,0.7,0.1c0.3-0.2,0.6-0.3,0.9-0.2
		c0.1,0,0.1,0.3,0.1,0.4c0,0.4-0.4,0.3-0.7,0.4c-0.7,0.2-0.9,0.7-0.9,1.4c0,0.6,0,1.2,0,1.8c0,0.3-0.1,0.4-0.4,0.4
		c-0.3,0-0.4-0.2-0.4-0.4C30.6,25,30.6,24.4,30.6,23.8z"/>
	<path class="st11" d="M62.8,23.8c0,1-0.5,1.7-1.3,1.7c-0.8,0-1.3-0.7-1.4-1.6c0-1,0.5-1.7,1.4-1.7C62.3,22.2,62.8,22.8,62.8,23.8z"
		/>
	<path class="st11" d="M35.6,23.5c-0.4-0.3-1.1,0.3-1.2-0.4c0-0.6,0.5-0.8,1.1-0.8c0.6,0,1.1,0.3,1.1,0.9
		C36.6,23.8,35.9,23.2,35.6,23.5z"/>
	<path class="st11" d="M27.4,23.5c-0.4-0.2-1.1,0.2-1.1-0.4c0-0.6,0.5-0.9,1.2-0.9c0.6,0,1.2,0.4,1.1,0.9
		C28.5,23.8,27.7,23.1,27.4,23.5z"/>
	<path class="st11" d="M53.8,23.5c-0.3-0.2-1,0.3-1-0.3c0-0.6,0.5-0.9,1.2-0.9c0.6,0,1.2,0.3,1.1,0.9C55,23.8,54.3,23.2,53.8,23.5z"
		/>
	<path class="st12" d="M45.1,23.8c0,1-0.5,1.6-1.3,1.6c-0.8,0-1.3-0.6-1.4-1.6c0-1,0.5-1.7,1.3-1.7C44.6,22.2,45.1,22.8,45.1,23.8z"
		/>
</g>
</svg>
