<?xml version="1.0" encoding="utf-8"?>
<!-- Generator: Adobe Illustrator 24.3.0, SVG Export Plug-In . SVG Version: 6.00 Build 0)  -->
<svg version="1.1" id="Layer_1" xmlns="http://www.w3.org/2000/svg" xmlns:xlink="http://www.w3.org/1999/xlink" x="0px" y="0px"
	 viewBox="0 0 48 48" style="enable-background:new 0 0 48 48;" xml:space="preserve">
<style type="text/css">
	.st0{fill:none;}
	.st1{fill:#A47BBA;}
</style>
<path class="st0" d="M0,0h48v48H0V0z"/>
<path class="st1" d="M40,30.8c-2.5,0-4.8-0.4-7.1-1.1c-0.7-0.2-1.5-0.1-2,0.5l-3.1,3.9c-5.7-2.7-11-7.8-13.8-13.7l3.9-3.3
	c0.5-0.6,0.7-1.3,0.5-2c-0.7-2.2-1.1-4.6-1.1-7.1c0-1.1-0.9-2-2-2H8.4C7.3,6,6,6.5,6,8c0,18.6,15.5,34,34,34c1.4,0,2-1.3,2-2.4v-6.9
	C42,31.7,41.1,30.8,40,30.8z"/>
</svg>
