<?xml version="1.0" encoding="utf-8"?>
<!-- Generator: Adobe Illustrator 24.3.0, SVG Export Plug-In . SVG Version: 6.00 Build 0)  -->
<svg version="1.1" id="Layer_1" xmlns="http://www.w3.org/2000/svg" xmlns:xlink="http://www.w3.org/1999/xlink" x="0px" y="0px"
	 viewBox="0 0 64 48" style="enable-background:new 0 0 64 48;" xml:space="preserve">
<style type="text/css">
	.st0{fill:#90A4AE;}
	.st1{fill:#A47BBA;}
</style>
<g>
	<path class="st0" d="M14.3,9h1.9l-0.6,2.9h2.3L18.5,9h1.9l-1.6,7.8h-1.9l0.6-3.2h-2.3l-0.6,3.2h-1.9L14.3,9z"/>
	<path class="st0" d="M24.1,10.7c1.5,0,2,1,2,2.3c0,0.6-0.2,1.3-0.3,1.4h-3.2c0,0.8,0.6,1.1,1.2,1.1c0.3,0,0.7-0.2,1-0.4l0.7,1.2
		c-0.5,0.3-1.2,0.6-2.2,0.6c-1.5,0-2.5-1-2.5-2.6C20.7,12.1,22.4,10.7,24.1,10.7z M24.4,13.2c0-0.1,0-0.2,0-0.4
		c0-0.4-0.2-0.7-0.7-0.7c-0.5,0-0.9,0.3-1.2,1.1H24.4z"/>
	<path class="st0" d="M29.7,8.3H31l-4.2,10.4h-1.2L29.7,8.3z"/>
	<path class="st0" d="M32.1,9h1.9l-0.6,2.9h2.3L36.4,9h1.9l-1.6,7.8h-1.9l0.6-3.2h-2.3l-0.6,3.2h-1.9L32.1,9z"/>
	<path class="st0" d="M39.5,10.8h1.9l-1.2,6h-1.9L39.5,10.8z M39.8,9.1c0-0.6,0.5-1.1,1.2-1.1c0.5,0,1,0.3,1,0.9
		c0,0.6-0.5,1.1-1.2,1.1C40.3,10,39.8,9.7,39.8,9.1z"/>
	<path class="st0" d="M42.8,10.8h1.6v0.8h0c0.6-0.5,1.2-0.9,1.9-0.9c0.9,0,1.2,0.4,1.4,1c0.6-0.6,1.3-1,2-1c1,0,1.4,0.5,1.4,1.6
		c0,0.3,0,0.6-0.1,0.9l-0.7,3.7h-1.9l0.7-3.5c0-0.2,0.1-0.4,0.1-0.5c0-0.3-0.2-0.5-0.5-0.5c-0.2,0-0.6,0.2-1,0.7l-0.8,3.8H45
		l0.7-3.5c0-0.2,0.1-0.4,0.1-0.5c0-0.3-0.2-0.5-0.5-0.5c-0.3,0-0.6,0.2-1,0.7l-0.7,3.8h-1.9L42.8,10.8z"/>
	<path class="st0" d="M11.1,26.4l1.4-1.1c0.4,0.6,1,0.9,1.6,0.9c0.6,0,0.9-0.3,0.9-0.7c0-0.3-0.3-0.5-0.9-0.8l-0.7-0.4
		c-0.7-0.5-1.2-1-1.2-2c0-1.4,1.3-2.5,2.9-2.5c0.9,0,1.8,0.5,2.4,1.2l-1.2,1.1c-0.4-0.4-0.8-0.7-1.3-0.7c-0.6,0-0.8,0.3-0.8,0.7
		c0,0.3,0.3,0.5,1,0.9l0.7,0.4c0.8,0.5,1.1,0.9,1.1,1.9c0,1.4-1.2,2.6-3,2.6C13,27.9,11.9,27.5,11.1,26.4z"/>
	<path class="st0" d="M19.3,19.4h1.9l-0.4,1.9l-0.3,1.1h0c0.5-0.4,1.1-0.8,1.8-0.8c1,0,1.4,0.5,1.4,1.6c0,0.3,0,0.6-0.1,0.9L23,27.8
		h-1.9l0.7-3.5c0-0.2,0.1-0.4,0.1-0.5c0-0.3-0.2-0.5-0.5-0.5c-0.3,0-0.6,0.2-1.1,0.7l-0.7,3.8h-1.9L19.3,19.4z"/>
	<path class="st0" d="M27.9,21.7c1.5,0,2,1,2,2.3c0,0.6-0.2,1.3-0.3,1.4h-3.2c0,0.8,0.6,1.1,1.2,1.1c0.3,0,0.7-0.2,1-0.4l0.7,1.2
		c-0.5,0.3-1.2,0.6-2.2,0.6c-1.5,0-2.5-1-2.5-2.6C24.5,23.1,26.3,21.7,27.9,21.7z M28.3,24.2c0-0.1,0-0.2,0-0.4
		c0-0.4-0.2-0.7-0.7-0.7c-0.5,0-0.9,0.3-1.2,1.1H28.3z"/>
	<path class="st0" d="M33.6,19.3h1.2l-4.2,10.4h-1.2L33.6,19.3z"/>
	<path class="st0" d="M36,20h1.9l-0.6,2.9h2.3l0.6-2.9h1.9l-1.6,7.8h-1.9l0.6-3.2H37l-0.6,3.2h-1.9L36,20z"/>
	<path class="st0" d="M45.8,21.7c1.5,0,2,1,2,2.3c0,0.6-0.2,1.3-0.3,1.4h-3.2c0,0.8,0.6,1.1,1.2,1.1c0.3,0,0.7-0.2,1-0.4l0.7,1.2
		c-0.5,0.3-1.2,0.6-2.2,0.6c-1.5,0-2.5-1-2.5-2.6C42.4,23.1,44.2,21.7,45.8,21.7z M46.2,24.2c0-0.1,0-0.2,0-0.4
		c0-0.4-0.2-0.7-0.7-0.7c-0.5,0-0.9,0.3-1.2,1.1H46.2z"/>
	<path class="st0" d="M49.4,21.8h1.6l0,1.2h0c0.5-0.8,1.2-1.3,1.8-1.3c0.3,0,0.5,0,0.6,0.1l-0.6,1.7c-0.2-0.1-0.4-0.1-0.6-0.1
		c-0.5,0-0.9,0.3-1.4,1.1l-0.6,3.4h-1.9L49.4,21.8z"/>
	<path class="st1" d="M5.9,32.6h-2L4.3,31h5.9l-0.3,1.6h-2l-1.2,6.2H4.7L5.9,32.6z"/>
	<path class="st1" d="M11.2,30.4h1.9l-0.4,1.9l-0.3,1.1h0c0.5-0.4,1.1-0.8,1.8-0.8c1,0,1.4,0.5,1.4,1.6c0,0.3,0,0.6-0.1,0.9
		l-0.7,3.7H13l0.7-3.5c0-0.2,0.1-0.4,0.1-0.5c0-0.3-0.2-0.5-0.5-0.5c-0.3,0-0.6,0.2-1.1,0.7l-0.7,3.8H9.6L11.2,30.4z"/>
	<path class="st1" d="M19.8,32.7c1.5,0,2,1,2,2.3c0,0.6-0.2,1.3-0.3,1.4h-3.2c0,0.8,0.6,1.1,1.2,1.1c0.3,0,0.7-0.2,1-0.4l0.7,1.2
		c-0.5,0.3-1.2,0.6-2.2,0.6c-1.5,0-2.5-1-2.5-2.6C16.4,34.1,18.2,32.7,19.8,32.7z M20.2,35.2c0-0.1,0-0.2,0-0.4
		c0-0.4-0.2-0.7-0.7-0.7c-0.5,0-0.9,0.3-1.2,1.1H20.2z"/>
	<path class="st1" d="M21.6,40.8l0.6-1.4c0.1,0.1,0.3,0.1,0.5,0.1c0.4,0,0.8-0.3,1-0.7l0.1-0.2l-1.1-5.8h1.9l0.2,2.5
		c0,0.5,0.1,1.2,0.1,1.8h0c0.2-0.6,0.5-1.3,0.8-1.8l1.1-2.5h1.8l-3.1,6c-0.9,1.5-1.7,2.3-3,2.3C22.3,41,21.9,40.9,21.6,40.8z"/>
	<path class="st1" d="M31.3,30.3h1.2l-4.2,10.4h-1.2L31.3,30.3z"/>
	<path class="st1" d="M34.7,32.6h-2l0.3-1.6h5.9l-0.3,1.6h-2l-1.2,6.2h-1.9L34.7,32.6z"/>
	<path class="st1" d="M40,30.4H42l-0.4,1.9l-0.3,1.1h0c0.5-0.4,1.1-0.8,1.8-0.8c1,0,1.4,0.5,1.4,1.6c0,0.3,0,0.6-0.1,0.9l-0.7,3.7
		h-1.9l0.7-3.5c0-0.2,0.1-0.4,0.1-0.5c0-0.3-0.2-0.5-0.5-0.5c-0.3,0-0.6,0.2-1.1,0.7l-0.7,3.8h-1.9L40,30.4z"/>
	<path class="st1" d="M48.6,32.7c1.5,0,2,1,2,2.3c0,0.6-0.2,1.3-0.3,1.4H47c0,0.8,0.6,1.1,1.2,1.1c0.3,0,0.7-0.2,1-0.4l0.7,1.2
		c-0.5,0.3-1.2,0.6-2.2,0.6c-1.5,0-2.5-1-2.5-2.6C45.2,34.1,47,32.7,48.6,32.7z M49,35.2c0-0.1,0-0.2,0-0.4c0-0.4-0.2-0.7-0.7-0.7
		c-0.5,0-0.9,0.3-1.2,1.1H49z"/>
	<path class="st1" d="M52.2,32.8h1.6v0.8h0c0.6-0.5,1.2-0.9,1.9-0.9c0.9,0,1.2,0.4,1.4,1c0.6-0.6,1.3-1,2-1c1,0,1.4,0.5,1.4,1.6
		c0,0.3,0,0.6-0.1,0.9l-0.7,3.7h-1.9l0.7-3.5c0-0.2,0.1-0.4,0.1-0.5c0-0.3-0.2-0.5-0.5-0.5c-0.2,0-0.6,0.2-1,0.7l-0.8,3.8h-1.9
		l0.7-3.5c0-0.2,0.1-0.4,0.1-0.5c0-0.3-0.2-0.5-0.5-0.5c-0.3,0-0.6,0.2-1,0.7L53,38.8h-1.9L52.2,32.8z"/>
</g>
</svg>
